<svg id="Groupe_76" data-name="Groupe 76" xmlns="http://www.w3.org/2000/svg" width="201.01" height="48.562" viewBox="0 0 201.01 48.562">
  <path id="Tracé_8" data-name="Tracé 8" d="M356.077,161.945v-.5c9-.5,14.21-5.355,14.21-13.281,0-8.926-6.712-14.068-17.566-14.068H327.872v47.841h7.712V163.373h8.782c6,0,8.212,1.571,10.354,5.356l7.641,13.209h8.854l-8-13.851C361.5,165.087,359.79,162.945,356.077,161.945Zm-3.427-4.5H335.584V141.024H352.65c6.426,0,9.64,2.356,9.64,8.212C362.289,155.233,359.076,157.447,352.65,157.447Z" transform="translate(-327.872 -134.097)" fill="#fff"/>
  <rect id="Rectangle_1" data-name="Rectangle 1" width="7.712" height="8.212" transform="translate(47.98 0)" fill="#fff"/>
  <rect id="Rectangle_2" data-name="Rectangle 2" width="7.712" height="35.487" transform="translate(47.98 12.354)" fill="#fff"/>
  <path id="Tracé_9" data-name="Tracé 9" d="M421.556,177h-.571l-12.638-27.991h-8.5L416.415,184.5h9.425l16.709-35.487h-8.354Z" transform="translate(-340.232 -136.658)" fill="#fff"/>
  <path id="Tracé_10" data-name="Tracé 10" d="M473.479,178.853c-8.212,0-11.568-3.642-11.854-10.5h30.133a16.387,16.387,0,0,0,.286-3.356c0-10.783-7.5-16.852-18.494-16.852-11.568,0-19.137,7.426-19.137,18.494,0,11.853,7.64,18.422,19.279,18.422,9.8,0,16.885-4.485,17.867-11.17h-7.782C483.006,177.062,479.849,178.853,473.479,178.853Zm-.071-24.635c7.569,0,11.353,3.143,11.353,9.712v.143H461.7C462.125,157.718,465.553,154.218,473.408,154.218Z" transform="translate(-349.602 -136.51)" fill="#fff"/>
  <rect id="Rectangle_3" data-name="Rectangle 3" width="7.711" height="47.841" transform="translate(193.299 0.356)" fill="#fff"/>
  <path id="Tracé_11" data-name="Tracé 11" d="M543.936,164.847h-.01c-.715-10.754-8.149-16.691-19.212-16.691-9.835,0-16.937,4.517-17.877,11.245h7.774c.737-3.214,3.9-5.04,10.316-5.04,8.212,0,11.576,3.642,11.853,10.5H506.656a16.444,16.444,0,0,0-.288,3.364c0,10.775,7.5,16.851,18.5,16.851a20.054,20.054,0,0,0,12.655-4.016v4H544V166.577ZM525,179c-7.572,0-11.352-3.139-11.352-9.707v-.149h23.067C536.291,175.5,532.863,179,525,179Z" transform="translate(-358.523 -136.511)" fill="#fff"/>
</svg>
