<?xml version="1.0" encoding="UTF-8"?>
<svg width="15px" height="15px" viewBox="0 0 15 15" version="1.1" xmlns="http://www.w3.org/2000/svg" xmlns:xlink="http://www.w3.org/1999/xlink">
    <title>icon-解释</title>
    <g id="现货优化" stroke="none" stroke-width="1" fill="none" fill-rule="evenodd">
        <g id="1.1现货-限价" transform="translate(-1895.000000, -185.000000)" fill="#A7B1BB" fill-rule="nonzero" stroke="#A7B1BB" stroke-width="0.5">
            <g id="下单" transform="translate(1640.000000, 61.000000)">
                <g id="编组-16" transform="translate(10.000000, 117.000000)">
                    <g id="icon-解释" transform="translate(245.000000, 7.000000)">
                        <path d="M7.5,0.577429864 C11.3659118,0.577429864 14.5,3.71151803 14.5,7.57742986 C14.5,11.4433417 11.3659118,14.5774299 7.5,14.5774299 C3.63408816,14.5774299 0.5,11.4433417 0.5,7.57742986 C0.5,3.71151803 3.63408816,0.577429864 7.5,0.577429864 Z M7.5,1.531976 C4.16131084,1.531976 1.45454613,4.23875562 1.45454613,7.57742986 C1.45454613,10.916119 4.16132575,13.6228837 7.5,13.6228837 C10.8386892,13.6228837 13.5454539,10.9161041 13.5454539,7.57742986 C13.5454539,4.2387407 10.8386742,1.531976 7.5,1.531976 Z M7.97727351,9.93198688 L7.97727351,10.6319869 C7.97727351,10.7022777 7.92029158,10.7592597 7.85000075,10.7592597 L7.15000075,10.7592597 C7.0797099,10.7592596 7.02272797,10.7022777 7.02272797,10.6319869 L7.02272797,9.93198688 C7.02272797,9.86198688 7.08000074,9.80471412 7.15000074,9.80471412 L7.85000074,9.80471412 C7.92000075,9.80471412 7.97727351,9.86198688 7.97727351,9.93198688 Z M7.97727351,4.52288716 L7.97727351,8.58085065 C7.97727351,8.65114149 7.92029158,8.70812342 7.85000075,8.70812342 L7.15000075,8.70812342 C7.0797099,8.70812342 7.02272797,8.65114149 7.02272797,8.58085065 L7.02272797,4.52288716 C7.02272797,4.45288716 7.08000074,4.39561439 7.15000074,4.39561439 L7.85000074,4.39561439 C7.92000075,4.39561439 7.97727351,4.45288716 7.97727351,4.52288716 Z" id="形状" transform="translate(7.500000, 7.577430) rotate(-180.000000) translate(-7.500000, -7.577430) "></path>
                    </g>
                </g>
            </g>
        </g>
    </g>
</svg>